<svg width="50" height="50" viewBox="0 0 50 50" fill="none" xmlns="http://www.w3.org/2000/svg">
<g clip-path="url(#clip0)">
<path d="M24.389 0H25.611C26.069 0.094 26.54 0.0215 27.001 0.0955C32.383 0.4995 37.599 2.732 41.615 6.335C44.815 9.1915 47.2965 12.869 48.6565 16.9435C49.3545 18.9555 49.761 21.063 49.9215 23.1845C49.978 23.5845 49.908 23.993 50 24.389V25.611C49.906 26.0375 49.9795 26.476 49.913 26.906C49.5735 31.5115 47.9265 36.0185 45.182 39.735C45.07 39.868 44.9045 39.935 44.747 39.997C43.5595 40.4605 42.3895 40.9965 41.149 41.303C41.418 40.9725 41.754 40.7035 42.017 40.367C44.914 37.1545 46.8895 33.1105 47.589 28.8375C48.0145 26.305 48.013 23.702 47.5815 21.17C46.7975 16.4225 44.4315 11.9665 40.988 8.612C37.2725 4.974 32.2875 2.643 27.101 2.1945C23.66 1.8705 20.1405 2.3305 16.9065 3.5565C12.6475 5.1515 8.891 8.0535 6.2685 11.7685C3.1775 16.082 1.68 21.5035 2.1165 26.7905C2.401 30.823 3.816 34.761 6.1225 38.0775C6.2655 38.278 6.42 38.471 6.5435 38.6855C5.985 39.0535 5.48 39.492 4.95 39.8965C2.1035 36.1495 0.4265 31.5465 0.083 26.86C0.0205 26.445 0.093 26.022 0 25.611V24.389C0.093 23.978 0.021 23.5545 0.0825 23.14C0.337 19.666 1.324 16.2445 2.976 13.177C5.075 9.28 8.2225 5.9555 12.0025 3.6525C15.357 1.591 19.216 0.3705 23.14 0.083C23.5545 0.021 23.978 0.093 24.389 0Z" fill="#FF5F00"/>
<path d="M26.6845 5.33405C26.794 5.01005 27.1935 5.14105 27.4495 5.11655C29.1775 5.05605 30.917 5.05705 32.6355 5.25755C32.6385 5.89405 32.4595 6.51605 32.439 7.15255C32.3175 8.24205 32.3785 9.35205 32.6325 10.4196C32.669 10.6216 32.738 10.8291 32.6995 11.0361C32.61 11.1276 32.467 11.1201 32.3485 11.1316C31.2485 11.1236 30.1485 11.2191 29.0495 11.1371C28.313 11.1566 27.583 11.0541 26.848 11.0341C26.6505 11.0591 26.5995 10.8386 26.551 10.6946C26.321 9.88305 26.1085 9.05105 26.154 8.20005C26.134 7.21955 26.417 6.26705 26.6845 5.33405Z" fill="#FF5F00"/>
<path d="M16.402 6.39975C17.9505 6.07175 19.5465 6.02125 21.125 6.08375C22.1345 6.18275 23.1785 6.22875 24.1405 6.56375C24.015 7.16725 23.805 7.75175 23.7025 8.36125C23.34 9.99525 23.688 11.6788 24.13 13.2613C24.2015 13.5723 24.3265 13.8718 24.357 14.1918C23.993 14.3428 23.584 14.2423 23.2005 14.2518C22.2345 14.2053 21.2655 14.2733 20.3015 14.1923C19.2335 14.1793 18.166 14.1943 17.0995 14.1383C16.8745 14.1018 16.479 14.2483 16.4085 13.9408C16.1475 13.0268 15.892 12.1018 15.8195 11.1503C15.6945 9.54725 15.982 7.94225 16.402 6.39975Z" fill="#FF5F00"/>
<path d="M25.199 11.4632C27.3475 11.3542 29.498 11.4382 31.643 11.5692C31.682 12.1862 31.4965 12.7927 31.463 13.4082C31.238 14.8597 31.3075 16.3462 31.626 17.7787C31.6595 18.0752 31.837 18.3907 31.687 18.6802C29.3015 18.7762 26.9075 18.7752 24.529 18.5632C24.395 18.5102 24.3565 18.3532 24.316 18.2297C24.157 17.6402 23.989 17.0512 23.898 16.4462C23.764 15.8292 23.83 15.1947 23.8185 14.5687C24.1065 14.5017 24.454 14.5757 24.697 14.3832C24.639 13.7627 24.2665 13.1952 24.2265 12.5682C24.305 12.2582 24.3875 11.9467 24.4955 11.6457C24.615 11.3707 24.9665 11.4932 25.199 11.4632Z" fill="#FF5F00"/>
<path d="M11.474 15.1304C13.1625 14.9914 14.8535 14.8164 16.55 14.8319C18.7155 14.8029 20.8765 14.9479 23.037 15.0764C23.273 15.0964 23.1605 15.3704 23.1195 15.5124C22.577 17.5819 22.063 19.6959 22.116 21.8499C22.091 23.4189 22.5355 24.9454 23.037 26.4174C23.1125 26.6724 23.2445 26.9159 23.2505 27.1874C21.4525 27.4889 19.6215 27.5919 17.7995 27.6174C15.6985 27.5599 13.591 27.4669 11.5065 27.1964C10.862 25.4174 10.271 23.5649 10.3305 21.6499C10.2955 19.6624 10.7545 17.7119 11.246 15.7994C11.3155 15.5764 11.3225 15.3174 11.474 15.1304Z" fill="#FF5F00"/>
<path d="M31.9255 15.3293C34.1575 15.1218 36.4 15.2818 38.6355 15.3208C38.7125 15.4418 38.7175 15.5853 38.676 15.7203C38.404 16.8438 38.1615 17.9883 38.1805 19.1503C38.1685 20.1048 38.31 21.0508 38.4095 21.9968C38.4265 22.2593 38.099 22.1253 37.9485 22.1058C36.0985 21.6808 34.1745 21.6188 32.299 21.9068C32.021 21.9218 31.7435 22.0293 31.467 21.9923C31.316 21.8073 31.2795 21.5618 31.21 21.3398C30.9865 20.5698 30.876 19.7613 30.9485 18.9603C31.2975 18.8758 31.6645 18.8723 32.002 18.7383C31.853 17.8458 31.6435 16.9628 31.4825 16.0718C31.4725 15.7763 31.55 15.3338 31.9255 15.3293Z" fill="#FF5F00"/>
<path d="M23.6535 19.4302C25.8765 19.3082 28.106 19.3942 30.322 19.5847C30.4185 19.6002 30.4775 19.7042 30.4515 19.7972C30.1805 21.3676 29.884 22.9496 29.9165 24.5501C29.8925 26.1701 30.23 27.7641 30.5155 29.3502C30.429 29.4401 30.3295 29.5296 30.198 29.5346C27.9235 29.7466 25.6335 29.9511 23.349 29.7706C22.351 29.7176 21.3625 29.5606 20.3675 29.4721C20.164 28.9457 19.9925 28.4057 19.849 27.8596C21.122 27.7636 22.422 27.7656 23.655 27.3876C23.6215 26.9692 23.437 26.5836 23.3115 26.1876C22.9255 24.9651 22.5735 23.7192 22.4665 22.4367C22.3975 21.4612 22.4945 20.4851 22.616 19.5181C22.93 19.3886 23.3125 19.4567 23.6535 19.4302Z" fill="#FF5F00"/>
<path d="M30.4215 22.8133C33.352 22.3503 36.3175 22.6293 39.252 22.8798C39.3845 22.8748 39.5815 22.9608 39.514 23.1243C38.9735 24.4438 38.3995 25.7918 38.3155 27.2348C38.169 28.7778 38.4865 30.3113 38.7945 31.8153C38.8405 31.9783 38.7655 32.2253 38.553 32.1718C36.3805 31.9358 34.1875 31.7253 32.0015 31.8918C30.9935 31.9213 30.005 32.1523 29.0125 32.3003C28.822 31.5488 28.675 30.7833 28.5635 30.0158C29.363 29.9348 30.1635 29.8448 30.941 29.6353C30.6015 28.0063 30.231 26.3678 30.1995 24.6983C30.2555 24.0678 30.294 23.4353 30.4215 22.8133Z" fill="#FF5F00"/>
<path d="M16.1575 28.0098C16.505 27.9298 16.8695 27.9253 17.2225 27.9713C17.322 28.6618 17.601 29.3113 17.71 30.0003C17.1435 29.8978 16.603 29.6898 16.048 29.5408C16.0205 29.0263 16.185 28.5253 16.1575 28.0098Z" fill="#FF5F00"/>
<path d="M4.59955 28.1623C4.93005 27.9803 5.32255 28.0638 5.68205 28.0693C7.45555 28.1838 9.22705 28.3803 10.9725 28.7163C13.675 29.1778 16.3585 29.8178 18.91 30.8338C22.53 32.2563 25.8265 34.3463 29.2525 36.1613C29.8475 35.8843 30.412 35.4673 30.7285 34.8793C30.8625 34.6503 30.9405 34.3953 31.062 34.1608C31.842 34.1598 32.6185 34.2753 33.399 34.2773C33.86 34.2478 34.3155 34.3418 34.7745 34.3683C36.6985 34.4438 38.628 34.4493 40.549 34.3103C40.6935 34.3003 40.9725 34.2768 40.9415 34.5003C40.8135 35.4578 40.771 36.4893 40.22 37.3203C39.7675 38.0393 38.971 38.4658 38.573 39.2233C38.236 39.7308 37.9835 40.2848 37.7405 40.8413C35.8545 40.8708 34.025 40.2558 32.333 39.4673C29.5765 38.1688 26.9665 36.5793 24.2 35.2998C22.067 34.3263 19.8285 33.4003 17.45 33.3478C16.089 33.3143 14.7315 33.5623 13.4435 33.9933C12.697 34.2298 11.9855 34.5618 11.255 34.8403C10.5845 33.2943 9.73005 31.8373 8.84355 30.4073C8.67255 30.1103 8.36355 29.9438 8.08505 29.7648C7.15255 29.1528 6.08405 28.8073 5.02905 28.4738C4.86605 28.4098 4.63905 28.3633 4.59955 28.1623Z" fill="#FF5F00"/>
<path d="M25.043 30.1543C25.2945 30.1373 25.5465 30.1398 25.7975 30.1608C25.9845 31.2963 26.3015 32.4053 26.5785 33.5208C26.631 33.8013 26.845 34.0753 26.748 34.3663C26.1925 34.1563 25.6595 33.8513 25.153 33.5323C25.092 33.3378 25.16 33.1328 25.17 32.9353C25.2225 32.0068 25.172 31.0743 25.043 30.1543Z" fill="#FF5F00"/>
<path d="M40.6015 31.8369C41.67 31.9439 42.7305 32.2079 43.72 32.6284C43.9475 32.7299 44.2395 32.9029 44.1995 33.1944C44.0875 33.7004 43.47 33.8639 43.3035 34.3334C43.5225 34.5594 43.913 34.5139 44.1035 34.7434C43.6755 34.9704 43.179 34.8659 42.721 34.8254C42.402 34.7834 42.063 34.7774 41.772 34.6264C41.634 34.5664 41.625 34.3744 41.7295 34.2794C41.9535 34.0604 42.2655 33.9704 42.5125 33.7834C41.8 33.5899 41.043 33.6749 40.3115 33.6334C40.294 33.0294 40.3665 32.3969 40.6015 31.8369Z" fill="#FF5F00"/>
<path d="M33.4585 32.3102C33.7105 32.2122 34.0305 32.1472 34.2765 32.2757C34.396 32.7087 34.451 33.1582 34.5575 33.5957C34.5855 33.7287 34.64 33.9672 34.441 33.9857C34.1335 33.9887 33.814 34.0287 33.515 33.9407C33.539 33.3957 33.4855 32.8532 33.4585 32.3102Z" fill="#FF5F00"/>
<path d="M13.2185 35.2694C14.53 34.8234 15.91 34.5364 17.3 34.5589C19.093 34.5519 20.8495 35.0389 22.505 35.6954C26.2005 37.1464 29.5045 39.4134 33.168 40.9329C34.481 41.4829 35.8735 41.8529 37.2965 41.9499C39.7955 42.1314 42.245 41.4239 44.5525 40.5369C43.7795 41.5874 42.8395 42.4989 41.9085 43.4074C41.7045 43.5504 41.5585 43.7774 41.327 43.8754C39.001 44.3829 36.55 44.3429 34.256 43.6944C32.6585 43.2349 31.1425 42.5374 29.664 41.7874C26.8055 40.3509 24.065 38.6519 21.05 37.5489C19.5245 36.9949 17.883 36.6634 16.2575 36.8599C14.747 37.0354 13.3005 37.5679 11.9525 38.2564C10.0235 39.2459 8.2795 40.5469 6.556 41.8499C6.0395 41.3099 5.5725 40.7244 5.1145 40.1349C7.606 38.2039 10.2175 36.3219 13.2185 35.2694Z" fill="#FF5F00"/>
<path d="M11.786 39.2871C13.967 38.0551 16.5535 37.4211 19.043 37.9071C22.1245 38.5151 24.873 40.1171 27.6 41.6001C29.0835 42.4191 30.5615 43.2571 32.1175 43.9326C33.888 44.7006 35.8145 45.1451 37.75 45.0991C38.5365 45.1031 39.319 45.0111 40.0965 44.9036C39.055 45.7246 37.9215 46.4226 36.7595 47.0596C36.593 47.1471 36.434 47.2721 36.242 47.2916C33.6195 47.0996 31.1445 46.0821 28.852 44.8461C26.356 43.5376 23.9525 42.0386 21.343 40.9571C19.995 40.4166 18.57 39.9571 17.101 39.9941C15.482 40.0351 13.927 40.6276 12.545 41.4421C11.234 42.1971 10.052 43.1476 8.86651 44.0806C8.29001 43.6036 7.73951 43.0946 7.23151 42.5446C8.65151 41.3341 10.152 40.1971 11.786 39.2871Z" fill="#FF5F00"/>
<path d="M14.907 41.4077C15.9045 41.1022 16.9585 41.0057 17.998 41.0712C19.54 41.2122 21.016 41.7422 22.4125 42.3902C25.1695 43.6582 27.6725 45.4112 30.4365 46.6642C31.847 47.3002 33.351 47.6997 34.874 47.9512C33.6975 48.4862 32.4575 48.8747 31.212 49.2137C31.0185 49.2802 30.812 49.2547 30.629 49.1712C27.4435 47.9712 24.671 45.9367 21.602 44.4947C20.543 43.9977 19.439 43.5647 18.2805 43.3712C17.0885 43.1772 15.8555 43.3762 14.7515 43.8502C13.5245 44.3577 12.437 45.1352 11.392 45.9422C10.7305 45.5437 10.0945 45.0897 9.50751 44.5872C11.113 43.2462 12.8835 42.0182 14.907 41.4077Z" fill="#FF5F00"/>
<path d="M11.7135 46.1838C12.284 45.7048 12.9085 45.2913 13.5445 44.9062C17.5825 47.2483 22.357 48.2933 27.004 47.8613C27.21 47.8648 27.3715 48.0143 27.5505 48.0988C28.463 48.5558 29.3695 49.0278 30.306 49.4343C29.1665 49.6528 28.0185 49.8358 26.86 49.9173C26.4455 49.9788 26.022 49.9063 25.611 49.9998H24.389C24.162 49.9518 23.93 49.9398 23.6985 49.9488C19.467 49.7503 15.307 48.4203 11.7135 46.1838Z" fill="#FF5F00"/>
</g>
<defs>
<clipPath id="clip0">
<rect width="50" height="50" fill="white"/>
</clipPath>
</defs>
</svg>
