<svg width="50" height="50" viewBox="0 0 50 50" fill="none" xmlns="http://www.w3.org/2000/svg">
<circle cx="25" cy="25" r="25" fill="#FF5F00"/>
<path fill-rule="evenodd" clip-rule="evenodd" d="M35.8108 16H15.1892L25.5 23.1727L35.8108 16ZM13 18.1182V32C13 33.1046 13.8954 34 15 34H36C37.1046 34 38 33.1046 38 32V18.1182C37.9551 18.1583 37.9073 18.1961 37.8566 18.2314L26.3566 26.2314C25.8417 26.5895 25.1583 26.5895 24.6434 26.2314L13.1434 18.2314C13.0927 18.1961 13.0449 18.1583 13 18.1182ZM10 18C10 15.2386 12.2386 13 15 13H36C38.7614 13 41 15.2386 41 18V32C41 34.7614 38.7614 37 36 37H15C12.2386 37 10 34.7614 10 32V18Z" fill="white"/>
</svg>
