<svg width="50" height="50" viewBox="0 0 50 50" fill="none" xmlns="http://www.w3.org/2000/svg">
<circle cx="25" cy="25" r="25" fill="#FF5F00"/>
<mask id="path-2-inside-1" fill="white">
<path fill-rule="evenodd" clip-rule="evenodd" d="M34 14H14C12.8954 14 12 14.8954 12 16V30C12 31.1046 12.8954 32 14 32H29.1429C29.2091 32.0407 29.282 32.0747 29.361 32.1005L35.9675 34.2586C36.7114 34.5016 37.4335 33.8346 37.2502 33.0738L35.9977 27.8751L36 27.873V16C36 14.8954 35.1046 14 34 14ZM14 35H30.1593C30.1921 35.0147 30.2262 35.0278 30.2614 35.0393L39.3168 37.9973C40.0486 38.2364 40.7647 37.5936 40.6058 36.8404L39 29.2269V16C39 13.2386 36.7614 11 34 11H14C11.2386 11 9 13.2386 9 16V30C9 32.7614 11.2386 35 14 35Z"/>
</mask>
<path fill-rule="evenodd" clip-rule="evenodd" d="M34 14H14C12.8954 14 12 14.8954 12 16V30C12 31.1046 12.8954 32 14 32H29.1429C29.2091 32.0407 29.282 32.0747 29.361 32.1005L35.9675 34.2586C36.7114 34.5016 37.4335 33.8346 37.2502 33.0738L35.9977 27.8751L36 27.873V16C36 14.8954 35.1046 14 34 14ZM14 35H30.1593C30.1921 35.0147 30.2262 35.0278 30.2614 35.0393L39.3168 37.9973C40.0486 38.2364 40.7647 37.5936 40.6058 36.8404L39 29.2269V16C39 13.2386 36.7614 11 34 11H14C11.2386 11 9 13.2386 9 16V30C9 32.7614 11.2386 35 14 35Z" fill="white"/>
<path d="M29.1429 32L30.7138 29.4442L29.9911 29H29.1429V32ZM29.361 32.1005L30.2926 29.2488L30.2926 29.2488L29.361 32.1005ZM35.9675 34.2586L35.036 37.1103L35.036 37.1103L35.9675 34.2586ZM37.2502 33.0738L34.3336 33.7765L34.3336 33.7765L37.2502 33.0738ZM35.9977 27.8751L33.9937 25.6426L32.662 26.838L33.0811 28.5778L35.9977 27.8751ZM36 27.873L38.004 30.1055L39 29.2114V27.873H36ZM30.1593 35L31.3845 32.2616L30.7998 32H30.1593V35ZM30.2614 35.0393L31.193 32.1876L31.1929 32.1876L30.2614 35.0393ZM39.3168 37.9973L38.3853 40.849L38.3853 40.8491L39.3168 37.9973ZM40.6058 36.8404L43.5412 36.2213L40.6058 36.8404ZM39 29.2269H36V29.5399L36.0646 29.8461L39 29.2269ZM14 17H34V11H14V17ZM15 16C15 16.5523 14.5523 17 14 17V11C11.2386 11 9 13.2386 9 16H15ZM15 30V16H9V30H15ZM14 29C14.5523 29 15 29.4477 15 30H9C9 32.7614 11.2386 35 14 35V29ZM29.1429 29H14V35H29.1429V29ZM30.2926 29.2488C30.4363 29.2958 30.5782 29.3608 30.7138 29.4442L27.572 34.5558C27.8401 34.7206 28.1276 34.8536 28.4295 34.9523L30.2926 29.2488ZM36.899 31.4069L30.2926 29.2488L28.4295 34.9523L35.036 37.1103L36.899 31.4069ZM34.3336 33.7765C33.9671 32.2549 35.4113 30.9209 36.899 31.4069L35.036 37.1103C38.0114 38.0822 40.8999 35.4142 40.1667 32.3711L34.3336 33.7765ZM33.0811 28.5778L34.3336 33.7765L40.1667 32.3711L38.9142 27.1724L33.0811 28.5778ZM33.996 25.6405L33.9937 25.6426L38.0016 30.1076L38.004 30.1055L33.996 25.6405ZM33 16V27.873H39V16H33ZM34 17C33.4477 17 33 16.5523 33 16H39C39 13.2386 36.7614 11 34 11V17ZM30.1593 32H14V38H30.1593V32ZM31.1929 32.1876C31.257 32.2086 31.321 32.2332 31.3845 32.2616L28.9342 37.7384C29.0632 37.7961 29.1953 37.8471 29.33 37.8911L31.1929 32.1876ZM40.2484 35.1456L31.193 32.1876L29.3299 37.8911L38.3853 40.849L40.2484 35.1456ZM37.6704 37.4595C37.3527 35.9531 38.7849 34.6676 40.2484 35.1456L38.3853 40.8491C41.3123 41.8052 44.1767 39.2342 43.5412 36.2213L37.6704 37.4595ZM36.0646 29.8461L37.6704 37.4595L43.5412 36.2213L41.9354 28.6078L36.0646 29.8461ZM36 16V29.2269H42V16H36ZM34 14C35.1046 14 36 14.8954 36 16H42C42 11.5817 38.4183 8 34 8V14ZM14 14H34V8H14V14ZM12 16C12 14.8954 12.8954 14 14 14V8C9.58172 8 6 11.5817 6 16H12ZM12 30V16H6V30H12ZM14 32C12.8954 32 12 31.1046 12 30H6C6 34.4183 9.58172 38 14 38V32Z" fill="white" mask="url(#path-2-inside-1)"/>
</svg>
