<svg width="50" height="50" viewBox="0 0 50 50" fill="none" xmlns="http://www.w3.org/2000/svg">
<circle cx="25" cy="25" r="25" fill="#FF5F00"/>
<path fill-rule="evenodd" clip-rule="evenodd" d="M7.51215 17.2093C7.16221 16.782 7.22491 16.1519 7.65219 15.802L13.6732 10.8708C14.1984 10.4407 14.9903 10.6476 15.2379 11.2796L16.3908 14.2215C16.462 14.4032 16.5849 14.5602 16.7442 14.6729L20.0013 16.9782C20.5403 17.3597 20.5681 18.1497 20.0572 18.5681L17.8839 20.3481L21.1881 24.2887C23.4507 26.987 26.2379 29.1976 29.3805 30.7864L31.5463 31.8813L32.9323 29.1718C33.2428 28.5649 34.0562 28.4397 34.5348 28.9252L36.7485 31.1711C36.8887 31.3133 37.0682 31.4103 37.264 31.4496L41.1705 32.2334C41.8205 32.3638 42.166 33.0791 41.8641 33.6693L38.1837 40.8641C37.9321 41.3558 37.3297 41.5505 36.838 41.299L33.6255 39.6556L26.6735 36.141C22.8056 34.1856 19.3752 31.4649 16.5905 28.1438L12.7452 23.5579C12.6858 23.5121 12.6306 23.4589 12.5811 23.3984L11.3036 21.8387L9.7012 19.9276L9.7233 19.9091L7.51215 17.2093Z" fill="white"/>
</svg>
